<svg width="1600" height="900" viewBox="0 0 1600 900" fill="none" xmlns="http://www.w3.org/2000/svg">
  <defs>
    <linearGradient id="bg" x1="0" y1="0" x2="1600" y2="900" gradientUnits="userSpaceOnUse">
      <stop stop-color="#0B1220"/>
      <stop offset="0.55" stop-color="#123A63"/>
      <stop offset="1" stop-color="#19A0FF"/>
    </linearGradient>
    <radialGradient id="glow1" cx="0" cy="0" r="1" gradientUnits="userSpaceOnUse" gradientTransform="translate(1280 180) rotate(133.5) scale(430 320)">
      <stop stop-color="#53E3FF" stop-opacity="0.55"/>
      <stop offset="1" stop-color="#53E3FF" stop-opacity="0"/>
    </radialGradient>
    <radialGradient id="glow2" cx="0" cy="0" r="1" gradientUnits="userSpaceOnUse" gradientTransform="translate(260 720) rotate(39.8) scale(520 360)">
      <stop stop-color="#7C5CFF" stop-opacity="0.4"/>
      <stop offset="1" stop-color="#7C5CFF" stop-opacity="0"/>
    </radialGradient>
    <linearGradient id="line" x1="260" y1="180" x2="1310" y2="680" gradientUnits="userSpaceOnUse">
      <stop stop-color="#7DE7FF" stop-opacity="0.9"/>
      <stop offset="1" stop-color="#FFFFFF" stop-opacity="0.15"/>
    </linearGradient>
    <filter id="blur" x="0" y="0" width="1600" height="900" filterUnits="userSpaceOnUse" color-interpolation-filters="sRGB">
      <feGaussianBlur stdDeviation="40"/>
    </filter>
  </defs>

  <rect width="1600" height="900" fill="url(#bg)"/>
  <rect width="1600" height="900" fill="url(#glow1)"/>
  <rect width="1600" height="900" fill="url(#glow2)"/>

  <g opacity="0.28">
    <circle cx="230" cy="170" r="2" fill="white"/>
    <circle cx="360" cy="120" r="2" fill="white"/>
    <circle cx="500" cy="240" r="2" fill="white"/>
    <circle cx="820" cy="130" r="2" fill="white"/>
    <circle cx="1160" cy="250" r="2" fill="white"/>
    <circle cx="1410" cy="180" r="2" fill="white"/>
    <circle cx="1320" cy="500" r="2" fill="white"/>
    <circle cx="1060" cy="690" r="2" fill="white"/>
    <circle cx="760" cy="760" r="2" fill="white"/>
    <circle cx="420" cy="650" r="2" fill="white"/>
    <circle cx="180" cy="550" r="2" fill="white"/>
  </g>

  <g opacity="0.18" stroke="url(#line)" stroke-width="2">
    <path d="M260 650C420 520 530 510 650 540C840 590 950 520 1060 420C1130 357 1210 290 1310 280"/>
    <path d="M330 220C440 250 520 300 620 380C730 468 820 492 930 470C1070 442 1180 338 1300 220"/>
    <path d="M230 450C340 400 430 360 560 370C680 379 790 470 920 560C1040 643 1170 660 1330 590"/>
  </g>

  <g opacity="0.22">
    <rect x="1020" y="170" width="240" height="120" rx="18" fill="#0E2238" stroke="#7DE7FF"/>
    <rect x="930" y="350" width="300" height="150" rx="18" fill="#0E2238" stroke="#8DA2FF"/>
    <rect x="280" y="260" width="250" height="120" rx="18" fill="#102844" stroke="#7DE7FF"/>
    <rect x="360" y="520" width="320" height="150" rx="18" fill="#102844" stroke="#8DA2FF"/>
  </g>

  <g opacity="0.65" filter="url(#blur)">
    <circle cx="1150" cy="220" r="90" fill="#2AD0FF"/>
    <circle cx="330" cy="720" r="110" fill="#6F5BFF"/>
  </g>

  <g transform="translate(215 155)">
    <text x="0" y="0" fill="#FFFFFF" font-family="Arial, Helvetica, sans-serif" font-size="64" font-weight="700">AIDevOps × OpenClaw</text>
    <text x="0" y="58" fill="#D7EBFF" font-family="Arial, Helvetica, sans-serif" font-size="24">智能运维 · 对话协同 · 集群发布 · 故障排查</text>
  </g>
</svg>
